 <svg version="1.0" xmlns="http://www.w3.org/2000/svg"
                                     class="img_vector"
                                     viewBox="0 0 702.000000 553.000000"
                                     preserveAspectRatio="xMidYMid meet">

                                <g transform="translate(0.000000,553.000000) scale(0.100000,-0.100000)"
                                   id="item_vector" stroke="none">
                                <linearGradient id="gradient" x2="1" y2="1">
                                <stop offset="0%" stop-color="#803dd1" />
                                <stop offset="100%" stop-color="#6200ff" />
                                </linearGradient>
                                <path d="M3330 4934 c-19 -2 -73 -9 -120 -15 -856 -105 -1595 -708 -1884
-1537 -87 -250 -120 -459 -120 -752 0 -232 13 -355 60 -549 189 -774 779
-1407 1538 -1650 246 -79 424 -105 706 -105 282 0 460 26 706 105 705 226
1267 788 1493 1493 41 126 65 231 88 376 24 160 24 500 0 660 -82 525 -314
976 -686 1333 -352 337 -781 548 -1261 622 -100 15 -445 28 -520 19z m500
-269 c668 -112 1227 -524 1524 -1122 95 -190 154 -373 193 -598 24 -140 24
-490 0 -630 -104 -597 -421 -1086 -914 -1409 -242 -159 -503 -260 -808 -313
-140 -24 -490 -24 -630 0 -597 104 -1086 421 -1409 914 -159 242 -260 503
-313 808 -24 140 -24 490 0 630 65 370 198 672 424 963 316 405 827 698 1328
761 50 6 104 13 120 15 65 9 395 -4 485 -19z"/>
<path d="M2315 3773 c-44 -23 -74 -53 -96 -96 -19 -35 -20 -58 -17 -396 l3
-359 30 -43 c17 -23 50 -53 74 -66 l44 -23 447 0 c444 0 447 0 489 23 24 12
57 42 75 66 l31 43 0 368 0 368 -31 43 c-18 24 -51 54 -75 66 -42 23 -44 23
-493 23 -391 -1 -455 -3 -481 -17z"/>
<path d="M3706 3767 c-59 -33 -94 -83 -107 -151 -6 -37 -9 -173 -7 -365 3
-291 4 -308 25 -346 27 -50 58 -80 105 -100 52 -21 900 -23 951 -1 41 17 84
60 108 109 19 35 20 58 17 390 l-3 352 -27 40 c-15 22 -44 51 -65 65 l-37 25
-460 2 -461 3 -39 -23z"/>
<path d="M2315 2573 c-44 -23 -74 -53 -96 -95 -18 -34 -19 -63 -19 -386 0
-346 0 -349 23 -393 13 -24 43 -57 66 -74 l43 -30 467 0 468 0 36 28 c20 15
49 44 64 64 l28 36 3 356 3 357 -24 44 c-14 28 -41 57 -71 78 l-48 32 -457 0
c-396 -1 -460 -3 -486 -17z"/>
<path d="M3715 2574 c-46 -23 -93 -74 -107 -113 -10 -26 -13 -127 -13 -376 l0
-340 25 -45 c14 -24 45 -58 68 -75 l44 -30 441 -3 c301 -2 454 0 480 8 47 14
102 62 128 112 19 37 20 57 17 392 l-3 354 -31 44 c-18 23 -51 53 -75 65 -42
23 -45 23 -493 23 -388 0 -455 -2 -481 -16z"/>
                                </g>
                                </svg>