<?xml version="1.0" standalone="no"?>
<!DOCTYPE svg PUBLIC "-//W3C//DTD SVG 20010904//EN"
 "http://www.w3.org/TR/2001/REC-SVG-20010904/DTD/svg10.dtd">
<svg version="1.0" xmlns="http://www.w3.org/2000/svg"
                                     class="img_vector"
                                     viewBox="-30 0 4000.000000 80.000000"
                                     preserveAspectRatio="xMidYMid meet">

                                <g transform="translate(10.000000,553.000000) scale(0.100000,-0.110000)"
                                   id="item_vector" fill="#0c4484" stroke="none">
                                <linearGradient id="gradient" x2="1" y2="1">
                                <stop offset="0%" stop-color="#AB00CC" />
                                <stop offset="100%" stop-color="#6200ff" />
                                </linearGradient>
<path d="M7165 16279 c-687 -52 -1419 -312 -1970 -702 -704 -498 -1221 -1192
-1490 -2000 -39 -116 -3635 -13535 -3635 -13563 0 -2 1740 -4 3868 -4 4166 0
3925 -3 4492 51 2774 261 4794 1176 5981 2709 411 531 694 1069 914 1735 79
237 90 311 90 605 0 449 -81 778 -297 1202 -254 501 -602 863 -1096 1142 -702
397 -1559 453 -2321 152 -63 -25 -116 -44 -118 -42 -9 8 111 161 181 232 215
215 476 326 837 355 204 16 543 -17 773 -77 32 -8 60 -13 63 -10 9 8 -39 78
-91 134 -27 29 -75 68 -106 87 -58 35 -221 95 -259 95 -20 0 -21 1 -6 23 24
38 135 122 217 167 153 82 353 136 592 159 120 12 440 13 579 3 l88 -7 132 80
c1174 716 1916 1690 2251 2957 77 290 142 676 171 1015 27 323 17 506 -45 813
-157 781 -573 1399 -1235 1835 -780 515 -1866 793 -3335 855 -284 12 -5064 11
-5225 -1z m4685 -2652 c468 -55 787 -137 1068 -272 222 -107 397 -242 513
-394 70 -93 145 -248 176 -366 23 -90 26 -118 26 -275 1 -647 -203 -1258 -558
-1673 -571 -668 -1534 -1022 -3040 -1117 -170 -11 -4315 -15 -4315 -4 0 25
640 2396 671 2489 79 231 189 457 309 635 171 254 440 513 700 673 276 170
646 286 1015 320 22 2 771 3 1665 3 1466 -2 1639 -4 1770 -19z m-1700 -6727
c823 -42 1388 -198 1754 -484 238 -186 377 -430 417 -734 27 -203 -31 -593
-127 -850 -384 -1027 -1523 -1581 -3483 -1692 -118 -6 -1002 -10 -2443 -10
l-2258 0 5 23 c4 13 230 860 503 1883 l497 1859 240 5 c462 10 4695 10 4895 0z"/>
<path d="M21720 16283 c-813 -57 -1595 -352 -2196 -828 -640 -507 -1095 -1158
-1339 -1915 -25 -80 -851 -3155 -1835 -6835 l-1788 -6690 3842 -3 c3984 -3
3942 -4 4411 39 1957 176 3503 649 4690 1434 353 233 626 456 926 755 284 283
507 553 712 862 474 712 802 1582 914 2423 25 190 25 721 0 890 -86 569 -294
1028 -658 1450 -189 219 -482 473 -726 630 -35 22 -63 43 -63 47 0 3 65 40
145 82 671 349 1262 826 1692 1363 638 799 988 1771 1063 2954 22 352 -59 796
-217 1189 -162 404 -422 767 -751 1050 -781 671 -1967 1027 -3662 1100 -200 9
-5041 12 -5160 3z m4445 -2643 c499 -37 878 -120 1204 -264 188 -83 345 -190
472 -322 217 -227 300 -464 286 -817 -30 -726 -257 -1297 -687 -1727 -578
-578 -1518 -894 -2915 -980 -97 -6 -983 -10 -2238 -10 -1975 0 -2078 1 -2073
18 3 9 150 556 326 1215 338 1267 366 1358 490 1612 235 481 630 871 1095
1078 214 96 498 172 730 195 129 13 3135 14 3310 2z m-1335 -6749 c712 -68
1145 -188 1477 -410 229 -153 378 -342 457 -581 47 -143 60 -244 53 -410 -37
-811 -463 -1437 -1247 -1830 -460 -230 -1057 -389 -1765 -470 -498 -56 -366
-54 -2932 -57 -1928 -3 -2372 -1 -2368 9 2 7 223 832 490 1833 267 1001 492
1844 501 1872 l14 53 238 3 c130 1 1299 2 2597 2 1744 -1 2393 -5 2485 -14z"/>
<path d="M483 9100 c-227 -41 -420 -230 -468 -458 -76 -357 204 -702 570 -702
162 0 291 55 410 175 120 119 175 248 175 410 0 253 -176 488 -420 559 -68 20
-199 28 -267 16z" fill="#e40414"/>
<path d="M30720 9094 c-213 -46 -389 -217 -445 -434 -23 -87 -16 -240 15 -327
59 -168 205 -312 369 -364 91 -29 227 -35 315 -15 103 24 200 80 281 161 328
327 158 885 -297 979 -92 19 -151 19 -238 0z" fill="#e40414"/>
</g>
</svg>
