 <svg version="1.0" xmlns="http://www.w3.org/2000/svg"
                                     class="img_vector"
                                     viewBox="20 0 640.000000 604.000000"
                                     preserveAspectRatio="xMidYMid meet">

                                <g transform="translate(0.000000,553.000000) scale(0.100000,-0.100000)"
                                   id="item_vector" fill="#03a6d7" stroke="none">
                                <linearGradient id="gradient" x2="1" y2="1">
                                <stop offset="0%" stop-color="#AB00CC" />
                                <stop offset="100%" stop-color="#6200ff" />
                                </linearGradient>
                                <path d="M3280 4929 c-904 -98 -1657 -694 -1954 -1546 -87 -251 -120 -460
                                      -120 -753 0 -232 13 -355 60 -549 171 -699 675 -1294 1335 -1574 512 -218
                                      1088 -245 1615 -76 705 226 1267 788 1493 1493 41 126 65 231 88 376 24 160
                                      24 500 0 660 -82 525 -314 976 -686 1333 -352 337 -781 548 -1261 622 -125 19
                                      -451 27 -570 14z m550 -264 c585 -98 1082 -421 1404 -912 159 -242 260 -503
                                      313 -808 24 -140 24 -490 0 -630 -104 -597 -421 -1086 -914 -1409 -242 -159
                                      -503 -260 -808 -313 -140 -24 -490 -24 -630 0 -596 103 -1086 421 -1409 914
                                      -159 242 -260 503 -313 808 -24 140 -24 490 0 630 65 369 198 672 426 965 313
                                      403 826 696 1326 759 50 6 104 13 120 15 65 9 395 -4 485 -19z"/>
                                <path d="M3445 4034 c-109 -27 -241 -109 -420 -262 l-60 -52 -135 0 c-155 0
                                      -200 -14 -241 -71 -21 -30 -25 -48 -29 -145 l-5 -111 -105 -83 c-137 -108
                                      -167 -137 -193 -185 -22 -40 -22 -44 -25 -750 -2 -514 0 -725 8 -764 10 -43
                                      22 -64 63 -106 35 -35 65 -57 92 -64 28 -8 379 -11 1150 -11 l1110 0 50 24
                                      c52 23 92 63 123 120 16 28 17 91 17 766 l0 736 -26 49 c-20 40 -53 73 -162
                                      160 l-136 110 -1 94 c0 112 -19 162 -77 201 -34 23 -47 25 -184 30 l-148 5
                                      -73 61 c-114 96 -226 174 -306 212 -66 32 -84 35 -170 38 -54 2 -106 1 -117
                                      -2z m230 -200 c39 -18 95 -52 125 -74 l55 -40 -314 0 -315 0 55 41 c64 48 155
                                      96 207 108 55 14 109 4 187 -35z m675 -726 l-1 -443 -106 -85 c-58 -47 -203
                                      -163 -322 -258 -222 -178 -312 -234 -379 -236 -71 -1 -158 54 -449 287 -153
                                      121 -284 227 -291 234 -8 7 -29 25 -48 39 l-34 26 0 439 0 439 815 0 815 0 0
                                      -442z m-1790 -118 c0 -99 -3 -180 -6 -180 -3 0 -39 26 -80 58 l-73 57 0 60 c0
                                      33 5 67 12 75 18 23 127 110 138 110 5 0 9 -79 9 -180z m2027 138 c79 -61 93
                                      -82 93 -143 0 -44 -4 -55 -27 -76 -54 -47 -120 -99 -127 -99 -3 0 -6 81 -6
                                      180 0 99 3 180 7 180 3 0 30 -19 60 -42z m-2165 -426 c2 -5 143 -120 313 -256
                                      171 -136 348 -280 393 -319 316 -270 485 -274 794 -20 39 32 137 110 217 173
                                      80 64 157 125 171 137 14 12 102 83 195 158 l170 135 3 -530 c2 -494 1 -533
                                      -15 -555 -10 -13 -31 -26 -47 -29 -56 -12 -2131 -7 -2165 5 -17 6 -36 19 -41
                                      29 -13 24 -14 1080 -1 1080 5 0 11 -4 13 -8z"/>
                                <path d="M3062 3218 c-16 -16 -16 -130 0 -146 17 -17 939 -17 956 0 7 7 12 39
                                      12 73 0 34 -5 66 -12 73 -17 17 -939 17 -956 0z"/>
                                <path d="M3061 2886 c-7 -9 -11 -40 -9 -78 l3 -63 479 -3 c377 -2 481 0 488
                                      10 12 20 9 123 -4 136 -9 9 -129 12 -479 12 -390 0 -468 -2 -478 -14z"/>
                                </g>
                                </svg>