 <svg version="1.0" xmlns="http://www.w3.org/2000/svg"
                                     class="img_vector"
                                     viewBox="-80 0 2650.000000 653.000000"
                                     preserveAspectRatio="xMidYMid meet">

                                <g transform="translate(2.100000,1450.000000) scale(0.100000,-0.100000)"
                                   id="item_vector" fill="#03a6d7" stroke="none">
                                <linearGradient id="gradient" x2="1" y2="1">
                                <stop offset="0%" stop-color="#AB00CC" />
                                <stop offset="100%" stop-color="#6200ff" />
                                </linearGradient>
<path d="M11165 21084 c-27 -2 -129 -8 -225 -14 -1810 -113 -3588 -772 -5066
-1881 -927 -695 -1731 -1567 -2348 -2547 -318 -505 -634 -1138 -841 -1687
-326 -862 -513 -1705 -592 -2670 -25 -298 -25 -1112 0 -1410 106 -1293 416
-2417 973 -3535 612 -1226 1439 -2259 2518 -3144 837 -687 1883 -1266 2931
-1622 782 -266 1537 -418 2425 -486 220 -17 1060 -17 1280 0 1328 102 2463
411 3600 978 1215 607 2254 1436 3124 2494 773 938 1386 2086 1741 3260 201
666 321 1310 382 2055 13 161 17 325 17 705 0 594 -16 842 -90 1365 -200 1417
-748 2819 -1564 4007 -737 1073 -1693 1992 -2788 2682 -505 318 -1138 634
-1687 841 -859 325 -1708 514 -2659 591 -177 14 -999 28 -1131 18z m3295
-7039 l0 -1905 -1440 -960 -1440 -960 -1440 960 -1440 960 0 1905 0 1905 2880
0 2880 0 0 -1905z m-6490 -1211 l0 -215 -32 23 c-111 78 -545 391 -552 399 -6
5 106 9 287 9 l297 0 0 -216z m7830 202 c-20 -18 -560 -406 -566 -406 -2 0 -4
95 -4 210 l0 210 292 0 c247 0 290 -2 278 -14z m-7379 -1608 c1050 -706 1909
-1286 1909 -1289 0 -3 -732 -498 -1627 -1100 -896 -601 -1757 -1180 -1915
-1287 l-288 -193 0 2575 c0 1417 3 2576 6 2576 3 0 865 -577 1915 -1282z
m8239 -1294 l0 -2575 -287 193 c-159 107 -1020 686 -1915 1287 -896 602 -1628
1097 -1628 1100 0 7 3811 2570 3823 2571 4 0 7 -1159 7 -2576z m-5503 -510
c261 -162 295 -177 413 -182 137 -6 183 12 420 167 107 70 200 130 207 134 7
4 767 -515 1830 -1249 1000 -691 1825 -1263 1833 -1270 12 -12 -636 -14 -4280
-13 -4259 0 -4295 0 -4270 20 106 82 3638 2516 3647 2514 7 -3 97 -57 200
-121z"/>
<path d="M9727 15239 c-158 -38 -275 -177 -285 -340 -9 -159 69 -288 218 -362
l65 -32 790 0 790 0 67 32 c81 38 146 102 185 181 25 51 28 68 28 157 0 90 -3
106 -29 159 -39 79 -102 140 -184 179 l-67 32 -770 2 c-428 1 -787 -3 -808 -8z"/>
<path d="M9715 13786 c-110 -35 -193 -105 -242 -204 -25 -50 -28 -68 -28 -152
0 -84 3 -102 29 -158 37 -80 122 -161 203 -194 l58 -23 1510 0 1510 0 58 23
c130 53 226 183 235 318 6 93 -11 160 -58 234 -48 73 -115 124 -199 150 -62
20 -89 20 -1550 19 -1171 0 -1494 -3 -1526 -13z"/>
</g>
</svg>
