<?xml version="1.0" standalone="no"?>
<!DOCTYPE svg PUBLIC "-//W3C//DTD SVG 20010904//EN"
 "http://www.w3.org/TR/2001/REC-SVG-20010904/DTD/svg10.dtd">
<svg version="1.0" xmlns="http://www.w3.org/2000/svg"
                                     class="img_vector"
                                     viewBox="-50 0 2050.000000 653.000000"
                                     preserveAspectRatio="xMidYMid meet">

                                <g transform="translate(0.000000,553.000000) scale(0.100000,-0.100000)"
                                   id="item_vector" fill="#" stroke="none">
                                <linearGradient id="gradient" x2="1" y2="1">
                                <stop offset="0%" stop-color="#AB00CC" />
                                <stop offset="100%" stop-color="#6200ff" />
                                </linearGradient>
<path d="M1250 6052 c0 -4 -279 -1362 -620 -3016 -341 -1655 -620 -3012 -620
-3017 0 -6 1268 -8 3113 -6 2864 3 3122 4 3235 20 426 59 747 169 985 338 172
122 349 331 465 549 181 340 302 838 302 1246 0 176 -17 292 -60 402 -89 228
-307 379 -685 472 -71 18 -131 34 -133 35 -1 1 37 15 85 30 377 116 658 301
813 532 153 229 289 641 341 1033 16 123 16 363 0 465 -93 577 -540 850 -1499
915 -184 12 -5722 14 -5722 2z m5014 -1460 c132 -37 204 -92 248 -187 19 -41
22 -66 22 -145 -2 -236 -114 -427 -306 -519 -171 -81 -14 -75 -1920 -78 -1620
-3 -1698 -3 -1698 14 0 10 43 224 95 477 52 252 95 460 95 463 0 2 762 2 1693
1 l1692 -3 79 -23z m-394 -2204 c174 -43 256 -97 310 -202 33 -65 35 -74 34
-165 -1 -157 -46 -275 -143 -371 -63 -63 -122 -99 -223 -135 -171 -62 -67 -58
-1965 -62 -953 -2 -1733 -1 -1733 1 0 10 190 931 195 944 4 10 337 12 1732 9
1551 -2 1735 -4 1793 -19z"/>
<path d="M9485 3058 c-340 -1652 -621 -3013 -623 -3026 l-4 -22 3113 3 c3416
3 3164 -1 3483 61 598 117 977 391 1226 886 147 293 252 699 279 1082 18 243
-15 458 -92 602 -94 176 -323 315 -655 397 l-133 33 149 51 c570 196 823 467
992 1065 80 285 113 491 114 715 0 224 -32 381 -109 535 -185 367 -621 557
-1403 610 -100 6 -1129 10 -2936 10 l-2782 0 -619 -3002z m5629 1534 c132 -37
205 -92 247 -186 47 -107 31 -272 -41 -425 -70 -146 -197 -244 -381 -293 l-84
-23 -1697 -2 c-1443 -3 -1698 -1 -1698 10 0 8 43 222 95 476 52 254 95 464 95
467 0 2 762 3 1693 2 l1692 -3 79 -23z m-384 -2206 c88 -21 180 -63 232 -106
88 -73 125 -217 94 -370 -40 -194 -150 -319 -347 -391 -182 -66 -65 -62 -1976
-66 -953 -2 -1733 -2 -1733 0 0 8 191 933 195 945 4 10 337 12 1732 9 1619 -3
1733 -4 1803 -21z"/>
</g>
</svg>
