<?xml version="1.0" encoding="UTF-8"?>
<!DOCTYPE svg PUBLIC "-//W3C//DTD SVG 1.1//EN" "http://www.w3.org/Graphics/SVG/1.1/DTD/svg11.dtd">
<!-- Creator: CorelDRAW X6 -->
<svg xmlns="http://www.w3.org/2000/svg" xml:space="preserve" width="127mm" height="40mm" version="1.1" style="shape-rendering:geometricPrecision; text-rendering:geometricPrecision; image-rendering:optimizeQuality; fill-rule:evenodd; clip-rule:evenodd"
viewBox="11000 100 31700 21000"
 xmlns:xlink="http://www.w3.org/1999/xlink">
 <defs>
  <style type="text/css">
   <![CDATA[
    .fil0 {fill:#ED3237;fill-rule:nonzero}
   ]]>
  </style>
 </defs>
 <g id="Camada_x0020_1">
  <metadata id="CorelCorpID_0Corel-Layer"/>
  <path class="fil0" d="M882 13315l1057 -5130 4524 0c664,0 1114,107 1351,321 238,213 308,559 210,1034 -78,378 -192,646 -343,807 -150,161 -377,283 -683,369 360,68 585,195 678,379 92,185 100,467 22,848 -99,481 -291,830 -577,1048 -287,216 -715,325 -1286,325l-4953 0zm1820 -1228l2763 0c393,0 615,-125 666,-374 59,-287 -103,-430 -486,-430l-2777 0 -166 804zm385 -1870l2728 0c335,0 531,-134 586,-402 55,-268 -82,-402 -410,-402l-2739 0 -166 804zm5289 3098l1057 -5130 4524 0c664,0 1114,107 1351,321 238,213 308,559 210,1034 -78,378 -192,646 -343,807 -150,161 -377,283 -683,369 360,68 585,195 678,379 92,185 100,467 22,848 -99,481 -291,830 -577,1048 -287,216 -715,325 -1286,325l-4953 0zm1820 -1228l2763 0c393,0 615,-125 666,-374 59,-287 -103,-430 -486,-430l-2777 0 -166 804zm385 -1870l2728 0c335,0 531,-134 586,-402 55,-268 -82,-402 -410,-402l-2739 0 -166 804zm5972 -2032l5984 0 -262 1270 -2209 0 -795 3860 -1566 0 795 -3860 -2209 0 262 -1270zm3074 -501l0 0m-1161 5631l0 0m-2064 -5186l0 0m6432 56l5984 0 -262 1270 -2209 0 -795 3860 -1566 0 795 -3860 -2209 0 262 -1270zm3074 -501l0 0m-1161 5631l0 0m-2064 -5186l0 0"/>
 </g>
</svg>
