 <svg version="1.0" xmlns="http://www.w3.org/2000/svg"
                                     class="img_vector"
                                     viewBox="-700 -18000 20239 20239"
                                     preserveAspectRatio="xMidYMid meet">

                                <g transform="translate(0.000000,553.000000) scale(0.80,-0.75)"
                                   id="item_vector" fill="#03a6d7" stroke="none">
                                <linearGradient id="gradient" x2="1" y2="1">'
                                <stop offset="0%" stop-color="#AB00CC" />
                                <stop offset="100%" stop-color="#6200ff" />
                                </linearGradient>
        <path d="M11165 21084 c-27 -2 -129 -8 -225 -14 -1810 -113 -3588 -772 -5066
-1881 -927 -695 -1731 -1567 -2348 -2547 -318 -505 -634 -1138 -841 -1687
-326 -862 -513 -1705 -592 -2670 -25 -298 -25 -1112 0 -1410 106 -1293 416
-2417 973 -3535 612 -1226 1439 -2259 2518 -3144 837 -687 1883 -1266 2931
-1622 782 -266 1537 -418 2425 -486 220 -17 1060 -17 1280 0 1328 102 2463
411 3600 978 1215 607 2254 1436 3124 2494 773 938 1386 2086 1741 3260 201
666 321 1310 382 2055 13 161 17 325 17 705 0 594 -16 842 -90 1365 -200 1417
-748 2819 -1564 4007 -737 1073 -1693 1992 -2788 2682 -505 318 -1138 634
-1687 841 -859 325 -1708 514 -2659 591 -177 14 -999 28 -1131 18z m4045
-5932 l0 -1237 -492 -491 c-271 -270 -1354 -1348 -2406 -2396 l-1914 -1906
-164 -738 c-90 -407 -166 -749 -169 -761 l-5 -23 -1075 0 -1075 0 0 4395 0
4395 3650 0 3650 0 0 -1238z m938 -1296 c88 -30 162 -73 245 -143 34 -29 238
-232 453 -451 364 -371 394 -404 427 -473 87 -183 88 -391 1 -569 -32 -66 -60
-98 -221 -260 l-184 -185 -816 819 -815 820 188 186 c165 164 198 192 264 224
41 20 104 43 140 51 92 21 225 13 318 -19z m-948 -753 l135 -138 -2085 -2082
-2085 -2082 -169 106 -168 106 2113 2113 c1163 1163 2116 2114 2119 2114 3 0
66 -62 140 -137z m-1041 -3130 l-2082 -2081 -47 37 c-25 20 -101 65 -169 101
-141 74 -245 162 -297 251 -17 30 -52 90 -77 134 -26 44 -67 107 -91 140 l-45
60 2082 2082 2082 2083 363 -363 363 -363 -2082 -2081z m2401 1762 l135 -135
-1730 -1731 c-952 -952 -1903 -1900 -2115 -2109 l-385 -378 -103 169 -102 170
2077 2074 c1143 1141 2080 2074 2083 2075 3 0 66 -61 140 -135z m-1353 -4132
c-2 -2 -442 -2 -978 -1 l-974 3 975 1009 975 1009 3 -1008 c1 -555 1 -1010 -1
-1012z m-4405 1135 c158 -84 308 -215 397 -346 21 -31 61 -102 89 -158 102
-204 238 -332 482 -454 47 -23 105 -56 129 -73 111 -76 234 -233 305 -390 l34
-74 -422 -91 c-231 -51 -428 -92 -436 -92 -8 0 -208 193 -445 430 l-429 429
97 418 c108 460 104 443 113 443 4 0 42 -19 86 -42z m277 -1742 c12 -14 26
-11 -627 -168 -117 -28 -215 -49 -218 -45 -4 4 136 614 187 810 l10 38 318
-310 c175 -171 324 -317 330 -325z"/>
        <path d="M9178 15481 c-249 -80 -387 -356 -300 -603 54 -152 201 -278 361
-308 77 -14 1868 -13 1947 1 148 27 275 126 341 265 84 176 46 390 -94 530
-32 32 -82 67 -129 91 l-78 38 -995 2 c-944 2 -999 1 -1053 -16z"/>
        <path d="M9200 13656 c-77 -22 -152 -66 -210 -125 -242 -242 -154 -643 169
-773 l56 -23 1885 -3 c1399 -2 1899 0 1940 8 245 52 412 291 372 533 -31 186
-166 335 -347 383 -71 19 -3796 19 -3865 0z"/>
    </g>
</svg>
