 <svg version="1.0" xmlns="http://www.w3.org/2000/svg"
                                     class="img_vector"
                                     viewBox="0 0 702.000000 553.000000"
                                     preserveAspectRatio="xMidYMid meet">

                                <g transform="translate(0.000000,553.000000) scale(0.100000,-0.100000)"
                                   id="item_vector" stroke="none">
                                <linearGradient id="gradient" x2="1" y2="1">
                                <stop offset="0%" stop-color="#803dd1" />
                                <stop offset="100%" stop-color="#6200ff" />
                                </linearGradient>
                                <path d="M3330 4934 c-19 -2 -73 -9 -120 -15 -856 -105 -1595 -708 -1884
-1537 -87 -250 -120 -459 -120 -752 0 -232 13 -355 60 -549 189 -774 779
-1407 1538 -1650 246 -79 424 -105 706 -105 282 0 460 26 706 105 705 226
1267 788 1493 1493 41 126 65 231 88 376 24 160 24 500 0 660 -82 525 -314
976 -686 1333 -352 337 -781 548 -1261 622 -100 15 -445 28 -520 19z m500
-269 c668 -112 1227 -524 1524 -1122 95 -190 154 -373 193 -598 24 -140 24
-490 0 -630 -104 -597 -421 -1086 -914 -1409 -242 -159 -503 -260 -808 -313
-140 -24 -490 -24 -630 0 -597 104 -1086 421 -1409 914 -159 242 -260 503
-313 808 -24 140 -24 490 0 630 65 370 198 672 424 963 316 405 827 698 1328
761 50 6 104 13 120 15 65 9 395 -4 485 -19z"/>
<path d="M2455 3640 c-44 -18 -85 -83 -85 -136 l0 -24 -115 0 c-84 0 -124 -4
-145 -15 -62 -32 -60 0 -60 -832 0 -851 -4 -798 75 -878 70 -70 -34 -65 1440
-65 1474 0 1376 -4 1409 64 14 31 16 120 16 913 0 982 4 929 -70 965 -33 17
-112 18 -1240 17 -663 0 -1214 -4 -1225 -9z m2365 -975 l0 -815 -1146 0
c-1041 0 -1146 1 -1140 16 3 9 6 375 6 815 l0 799 1140 0 1140 0 0 -815z
m-2450 -58 c0 -668 -1 -715 -17 -729 -10 -8 -26 -18 -35 -21 -24 -9 -76 11
-88 33 -6 12 -10 283 -10 724 l0 706 75 0 75 0 0 -713z"/>
<path d="M2720 3300 c-19 -19 -20 -33 -20 -468 0 -389 2 -450 16 -470 l15 -22
457 0 c251 0 462 4 469 8 29 19 33 70 33 482 0 412 -4 463 -33 482 -7 4 -216
8 -464 8 -440 0 -454 -1 -473 -20z m800 -470 l0 -320 -325 0 -325 0 0 320 0
320 325 0 325 0 0 -320z"/>
<path d="M3882 3150 c-44 -18 -53 -100 -15 -142 15 -17 41 -18 382 -18 422 0
411 -2 411 79 0 91 22 86 -392 88 -206 1 -373 -2 -386 -7z"/>
<path d="M3856 2808 c-25 -35 -20 -94 9 -123 l24 -25 363 0 c423 0 408 -3 408
85 0 90 23 85 -410 85 l-379 0 -15 -22z"/>
<path d="M3866 2489 c-21 -16 -26 -29 -26 -63 0 -23 7 -52 16 -64 l15 -22 379
0 c436 0 413 -5 408 88 -3 49 -6 58 -28 69 -19 10 -115 13 -381 13 -345 0
-357 -1 -383 -21z"/>
<path d="M2734 2172 c-40 -26 -45 -102 -9 -137 l24 -25 438 0 c332 0 444 3
463 13 22 11 25 20 28 69 5 93 31 88 -488 88 -245 0 -450 -4 -456 -8z"/>
<path d="M3869 2161 c-34 -28 -34 -104 0 -132 23 -19 40 -20 393 -17 420 3
398 -2 398 89 0 81 11 79 -406 79 -341 0 -363 -1 -385 -19z"/>
                                </g>
                                </svg>